# xmcd CD database file
#
# Track frame offsets:
#	150
#	15293
#	27788
#	42898
#	54490
#	66343
#	80193
#	94130
#	102470
#	113533
#	125438
#	138778
#	153580
#	165415
#	173623
#	183038
#	195298
#	206193
#	215473
#	228473
#	244435
#	254190
#	268990
#
# Disc length: 3825 seconds
#
# Revision: 2
# Processed by: cddbd v1.5.2PL0 Copyright (c) Steve Scherf et al.
# Submitted via: CDex 1.70beta3
#
DISCID=420eef17
DTITLE=Various Artist - アニメ主題歌大全集Disc03
DYEAR=1900
DGENRE=Blues
TTITLE0=石川進/オバケのQ太郎
TTITLE1=曽我町子／石川進/オバQ音頭
TTITLE2=冨田勲/砂漠の嵐
TTITLE3=中山千夏／コロムビア合唱団/フンワカマーチ
TTITLE4=三輪勝恵／石川進/ぼくらのパーマン
TTITLE5=栗葉子/すてきなパー子
TTITLE6=アンサンブル・ポッカ/行け行け飛雄馬
TTITLE7=マイスタージンガー/サイボーグ009
TTITLE8=ボーカル・ショップ/戦いおわって
TTITLE9=白石冬美／今西正男／大竹宏／兼本新吾/おれは怪物くんだ
TTITLE10=今西正男／大竹宏／兼本新吾/そろた怪物3人組
TTITLE11=ハニー・ナイツ/サスケ
TTITLE12=岡田恭子/サスケのわらべうた かあさん
TTITLE13=岡田恭子/ひみつのアッコちゃん
TTITLE14=水森亜土/すきすきソング
TTITLE15=石川進／杉山佳寿子/ウメ星デンカがこんにちは
TTITLE16=石川進／杉山佳寿子／田の中勇／菅谷マサコ／大竹宏/ウメ星マーチ
TTITLE17=新田洋/タイガーマスク
TTITLE18=新田洋/みなしごのバラード
TTITLE19=尾藤イサオ/あしたのジョー
TTITLE20=小池朝雄/ジョーの子守唄
TTITLE21=嶋崎由理/みなしごハッチ
TTITLE22=嶋崎由理/ママをたずねて
EXTD=
EXTT0=
EXTT1=
EXTT2=
EXTT3=
EXTT4=
EXTT5=
EXTT6=
EXTT7=
EXTT8=
EXTT9=
EXTT10=
EXTT11=
EXTT12=
EXTT13=
EXTT14=
EXTT15=
EXTT16=
EXTT17=
EXTT18=
EXTT19=
EXTT20=
EXTT21=
EXTT22=
PLAYORDER=
